<svg xmlns="http://www.w3.org/2000/svg" viewBox="0 0 400 400" width="400" height="400"><rect width="400" height="400" rx="200" fill="none" stroke="none"/><rect width="400" height="400" fill="linear-gradient(180deg, #6a1b9a, #2c002c)"/><path d="M0 300 Q 200 350 400 300" fill="#1a0f17" stroke="#20172a" stroke-width="5"/><g transform="translate(50 150)"><rect x="0" y="250" width="30" height="50" rx="15" fill="linear-gradient(180deg, #8b4513, #654321)"/><path d="M-10 180 Q 0 150, 10 180 M10 180 Q 20 150, 30 180 M0 180 Q 15 130, 30 180" fill="#228B22"/></g><g transform="translate(150 150)"><rect x="0" y="250" width="30" height="50" rx="15" fill="linear-gradient(180deg, #8b4513, #654321)"/><path d="M-10 180 Q 0 150, 10 180 M10 180 Q 20 150, 30 180 M0 180 Q 15 130, 30 180" fill="#228B22"/></g><g transform="translate(250 150)"><rect x="0" y="250" width="30" height="50" rx="15" fill="linear-gradient(180deg, #8b4513, #654321)"/><path d="M-10 180 Q 0 150, 10 180 M10 180 Q 20 150, 30 180 M0 180 Q 15 130, 30 180" fill="#228B22"/></g></svg>